<svg width="218" height="84" viewBox="0 0 218 84" fill="none" xmlns="http://www.w3.org/2000/svg">
<path d="M23.1958 54.5687C21.047 54.9221 18.9287 54.9946 16.8407 54.7862C14.7577 54.6077 12.8394 54.1262 11.0859 53.3418C9.33237 52.5573 7.84803 51.4528 6.63288 50.0281C5.44758 48.5984 4.67825 46.8092 4.32488 44.6604C4.06476 43.0787 4.07099 41.3458 4.34356 39.4619C4.50498 38.3932 4.82524 37.4516 5.30435 36.6372C5.81329 35.8179 6.36415 35.1602 6.95693 34.6643C7.54971 34.1683 8.04009 33.8884 8.42807 33.8246C8.93542 33.7412 9.1836 33.9456 9.17259 34.4378C9.02788 34.6762 8.75623 34.9814 8.35764 35.3535C7.98399 35.6908 7.58029 36.125 7.14655 36.6561C6.74266 37.1823 6.37577 37.8403 6.04589 38.6302C5.74095 39.3854 5.58729 40.3149 5.5849 41.4187C5.58902 41.8165 5.59313 42.2143 5.59725 42.6121C5.6312 43.005 5.67763 43.3805 5.73652 43.7386C6.05554 45.6785 6.75557 47.3259 7.83661 48.6807C8.91765 50.0355 10.2107 51.0949 11.7156 51.8589C13.2504 52.618 14.8629 53.1038 16.553 53.3163C18.2779 53.5537 19.9288 53.5274 21.5056 53.2375C23.9132 52.7803 26.0056 52.0837 27.7827 51.1477C29.5648 50.2417 31.1036 49.161 32.3991 47.9058C33.6946 46.6506 34.7939 45.3204 35.6969 43.9152C36.4552 42.7483 37.1767 41.3576 37.8614 39.7431C38.5461 38.1286 39.1838 36.4145 39.7744 34.6009C40.39 32.7525 40.9484 30.9289 41.4495 29.13C41.9804 27.3261 42.4664 25.6217 42.9075 24.0166C43.3485 22.4115 43.7368 21.0449 44.0724 19.9169C44.403 18.7591 44.6982 17.9443 44.9578 17.4725C42.4822 17.1439 40.1233 16.9648 37.8808 16.9351C35.6633 16.8706 33.3211 16.9799 30.8542 17.263C28.5962 17.5117 26.6384 18.0942 24.9806 19.0105C23.3527 19.9219 22.0152 21.0154 20.9683 22.2911C19.9463 23.5319 19.2101 24.8331 18.7596 26.1945C18.339 27.5511 18.2244 28.8113 18.4158 29.9752C18.5827 30.99 18.9861 31.8585 19.6259 32.5809C20.2907 33.2685 21.1898 33.703 22.3231 33.8845C23.0737 33.9756 23.7922 33.9647 24.4787 33.8518C25.5531 33.6751 26.4564 33.2967 27.1886 32.7165C27.9207 32.1364 28.5039 31.4887 28.938 30.7736C29.3971 30.0238 29.7143 29.3433 29.8897 28.7321C30.09 28.0861 30.168 27.6288 30.1238 27.3602L30.1165 27.3154C30.2363 27.1118 30.3708 26.9978 30.52 26.9732C30.8184 26.9242 31.002 27.1085 31.0707 27.5263C31.1325 28.8342 30.854 30.0294 30.2351 31.1121C29.646 32.1898 28.856 33.0707 27.865 33.7547C26.8741 34.4388 25.7817 34.8789 24.5879 35.0753C23.7523 35.2127 22.9244 35.2109 22.1042 35.0699C20.3646 34.7429 18.969 33.9916 17.9174 32.8159C16.8609 31.6103 16.2051 30.2315 15.9499 28.6796C15.7339 27.3664 15.804 26.0216 16.16 24.645C16.5111 23.2386 17.1802 21.9025 18.1675 20.6367C19.1498 19.341 20.4525 18.2226 22.0755 17.2813C23.6985 16.3401 25.674 15.6781 28.0018 15.2953C28.3898 15.2315 28.7032 15.1799 28.942 15.1407C29.1807 15.1014 29.5885 15.065 30.1654 15.0314C31.5877 14.9201 33.0446 14.9258 34.536 15.0483C36.0225 15.141 37.4567 15.2883 38.8386 15.4902C40.2205 15.6921 41.4954 15.8962 42.6635 16.1026C43.8315 16.309 44.7884 16.4428 45.5341 16.5041C45.604 16.37 45.8234 16.1194 46.1921 15.7522C46.5907 15.3801 46.9868 14.9932 47.3805 14.5912C47.804 14.1844 48.1305 13.8396 48.3598 13.5566C48.5892 13.2737 48.5844 13.1519 48.3457 13.1911L48.3009 13.1985C48.3855 13.1539 48.5025 13.1194 48.6517 13.0948C48.9501 13.0458 49.1911 13.1134 49.3747 13.2978C49.5534 13.4523 49.6599 13.634 49.6943 13.8429C49.7581 14.2309 49.6109 14.4544 49.2528 14.5132C49.1931 14.5231 49.0688 14.5128 48.8799 14.4826C48.7409 14.3829 48.5269 14.4794 48.2379 14.7721C47.9787 15.0599 47.7119 15.395 47.4376 15.7773C47.1883 16.1248 46.9912 16.4177 46.8465 16.6561C47.5374 16.757 48.3999 16.8757 49.4338 17.0122C50.4927 17.114 51.6138 17.2208 52.7969 17.3327C54.005 17.4099 55.1759 17.4473 56.3096 17.4447C57.4433 17.4422 58.4429 17.3698 59.3084 17.2275C60.1441 17.09 60.7835 16.8776 61.2266 16.5902C61.6996 16.2978 61.8969 15.9129 61.8183 15.4354C61.7889 15.2563 61.7942 15.1022 61.8342 14.973C61.8992 14.8091 62.0362 14.7099 62.2451 14.6755C62.3943 14.651 62.5209 14.7681 62.6247 15.0269C62.7237 15.2559 62.7854 15.4449 62.81 15.5942C62.9278 16.3104 62.6355 16.9562 61.9331 17.5315C61.2606 18.1018 60.3574 18.4803 59.2233 18.6668C59.0442 18.6962 58.8651 18.7257 58.6861 18.7551C58.5021 18.7547 58.3032 18.7568 58.0894 18.7613C54.6781 18.8931 51.9783 18.7854 49.9901 18.438C48.0318 18.0857 46.7967 17.8444 46.2848 17.714C45.2952 20.0837 44.5541 22.4737 44.0616 24.8843C43.5692 27.2948 43.1214 29.6979 42.7185 32.0937C42.3454 34.4846 41.8257 36.823 41.1594 39.1088C40.523 41.3897 39.5387 43.6052 38.2064 45.7554C37.2335 47.2947 35.9576 48.6693 34.3788 49.8791C32.8298 51.0841 31.0923 52.0748 29.1663 52.8513C27.2453 53.6576 25.2551 54.2301 23.1958 54.5687Z" fill="black"/>
<path d="M46.4926 46.2735C47.0137 43.4261 47.5458 40.4499 48.089 37.345C48.6531 34.2028 49.2423 31.0379 49.8565 27.8503C50.4707 24.6626 51.1071 21.6101 51.7656 18.6927C52.0158 17.6803 52.2754 16.8693 52.5443 16.26C52.8424 15.6424 53.3409 15.2357 54.0398 15.0398C54.3019 14.9663 54.62 14.9243 54.9939 14.9137C55.3679 14.9031 55.7069 14.8238 56.0109 14.6757C55.7466 15.1896 55.4224 16.05 55.0383 17.2571C54.6833 18.456 54.2981 19.8832 53.8827 21.5388C53.4964 23.1863 53.0845 24.9665 52.647 26.8796C52.2305 28.7554 51.8221 30.6603 51.4219 32.5943C51.0426 34.4911 50.6931 36.2695 50.3732 37.9298C50.7434 37.0093 51.1404 36.1284 51.5642 35.2872C51.988 34.4459 52.4218 33.6961 52.8655 33.0378C53.3429 32.2757 53.9723 31.4396 54.7538 30.5295C55.5644 29.6113 56.3849 28.7845 57.2153 28.0491C58.0749 27.3056 58.7959 26.8522 59.3784 26.6889C59.5822 26.6318 59.7319 26.6055 59.8274 26.6101C59.8274 26.6101 59.7489 26.9463 59.5918 27.6185C59.4347 28.2908 59.2352 29.1477 58.9932 30.1893C58.7803 31.2227 58.5587 32.3371 58.3283 33.5325C58.1271 34.7197 57.9719 35.8469 57.8627 36.914C57.7454 37.9521 57.7141 38.7933 57.7691 39.4375C57.8123 39.9279 57.8789 40.3333 57.9687 40.6537C58.0993 41.1197 58.2764 41.4155 58.5002 41.5413C58.7157 41.6379 58.9254 41.6577 59.1293 41.6005C59.6244 41.4617 60.0774 41.0049 60.4884 40.2301C60.8995 39.4552 61.2592 38.5534 61.5676 37.5246C61.8679 36.4667 62.1181 35.4542 62.3182 34.4872C62.5474 33.512 62.7132 32.7588 62.8156 32.2275C62.9005 31.8582 63.0304 31.649 63.2051 31.6001C63.3798 31.5511 63.4998 31.6431 63.5652 31.8761C63.5978 31.9926 63.6031 32.1795 63.581 32.437C63.4147 33.3003 63.2187 34.2819 62.993 35.3817C62.7883 36.4443 62.5025 37.4981 62.1359 38.5432C61.7902 39.5511 61.3308 40.4337 60.7578 41.1911C60.214 41.9404 59.5344 42.4293 58.7189 42.6579C58.1365 42.8211 57.4823 42.7846 56.7564 42.5484C56.0306 42.3121 55.5166 41.6551 55.2146 40.5776C55.1248 40.2573 55.06 39.9142 55.0203 39.5484C54.9724 39.1534 54.956 38.7026 54.971 38.1958C54.9824 37.5644 55.0941 36.842 55.3059 36.0288C55.5095 35.1864 55.7806 34.1367 56.1193 32.8795C56.2717 32.3028 56.3071 31.8688 56.2255 31.5776C56.1275 31.2281 55.9038 31.1024 55.5544 31.2003C55.2631 31.282 54.9108 31.5378 54.4973 31.9678C54.0839 32.3978 53.6006 33.083 53.0475 34.0233C52.5153 34.9263 51.8983 36.1987 51.1962 37.8404C50.4942 39.4821 49.8704 41.683 49.3248 44.4431C49.2271 44.8788 49.0512 45.148 48.7973 45.2506C48.5643 45.3159 48.248 45.4202 47.8485 45.5636C47.5945 45.6662 47.3365 45.7543 47.0744 45.8277C46.8205 45.9303 46.6265 46.0789 46.4926 46.2735Z" fill="black"/>
<path d="M69.3401 39.1965C68.2767 39.5453 67.2009 39.5163 66.1124 39.1094C65.0528 38.6931 64.2919 37.7808 63.83 36.3726C63.4057 35.0794 63.2693 33.5962 63.4208 31.9232C63.5628 30.2213 63.9385 28.6498 64.5479 27.2084C65.0608 25.9579 65.7308 24.8468 66.558 23.8752C67.3852 22.9035 68.2586 22.2669 69.1782 21.9652C69.8105 21.7578 70.4131 21.7511 70.986 21.9451C71.5971 22.1584 72.0158 22.61 72.2421 23.2997C72.4778 24.0182 72.464 24.898 72.2008 25.9393C71.9376 26.9806 71.4257 28.0398 70.6649 29.117C70.3376 29.5745 69.8905 30.0554 69.3238 30.5596C68.7571 31.0639 68.1762 31.525 67.5813 31.943C66.9768 32.3322 66.4591 32.5976 66.028 32.739C65.9974 33.131 66.0046 33.638 66.0495 34.2599C66.1231 34.8723 66.2588 35.4803 66.4568 36.0838C66.6925 36.8023 67.0483 37.4018 67.5243 37.8823C68.0002 38.3628 68.6262 38.4758 69.4021 38.2212C70.3505 37.9101 71.1231 37.3542 71.7199 36.5537C72.3167 35.7531 72.7849 34.8515 73.1244 33.8488C73.4545 32.8174 73.684 31.819 73.813 30.8536C73.9706 29.8788 74.0845 29.0615 74.1546 28.4019C74.1951 27.943 74.359 27.6664 74.6464 27.5722C74.7901 27.525 74.8855 27.5733 74.9326 27.717C74.9703 27.8319 74.9743 27.9898 74.9447 28.1905C74.8252 29.1846 74.6958 30.2457 74.5565 31.3736C74.4078 32.4728 74.1588 33.5572 73.8093 34.6268C73.4505 35.6676 72.9105 36.5928 72.1893 37.4024C71.4968 38.2025 70.5471 38.8005 69.3401 39.1965ZM66.0752 31.8641C66.4776 31.7321 67.1058 31.3668 67.9599 30.7683C68.8045 30.1411 69.5064 29.3697 70.0655 28.4542C70.5959 27.5481 70.935 26.6411 71.0828 25.7331C71.2211 24.7965 71.2007 24.0551 71.0216 23.5091C70.8142 22.8768 70.4806 22.6361 70.0208 22.787C69.6759 22.9001 69.2772 23.2856 68.8245 23.9434C68.3718 24.6012 67.8792 25.6222 67.3465 27.0066C67.0268 27.8754 66.7546 28.7923 66.53 29.7573C66.3054 30.7222 66.1538 31.4245 66.0752 31.8641Z" fill="black"/>
<path d="M96.4971 32.3281C96.1766 32.4223 95.791 32.4214 95.3404 32.3254C94.8899 32.2295 94.4545 31.9763 94.0343 31.5661C93.6438 31.1499 93.3635 30.5116 93.1936 29.6511C93.0529 28.939 93.0164 28.0521 93.0841 26.9905C92.8395 27.6247 92.5173 28.4128 92.1177 29.355C91.7122 30.2675 91.2446 31.0998 90.7149 31.8519C90.2566 32.4973 89.7987 32.9886 89.3412 33.3256C88.8837 33.6627 88.4472 33.8722 88.0318 33.9543C87.2604 34.1067 86.5698 33.8885 85.9603 33.2999C85.3448 32.6815 84.9257 31.8086 84.703 30.6811C84.4685 29.4942 84.4985 28.0855 84.793 26.455C85.0875 24.8245 85.7411 23.0614 86.754 21.1656C87.4093 19.9571 88.2837 18.9211 89.3771 18.0577C90.4944 17.1587 91.6464 16.592 92.8333 16.3575C93.5158 16.2227 94.192 16.2124 94.862 16.3267C95.5261 16.4113 96.1454 16.6589 96.7198 17.0695C96.9686 17.2362 97.1193 17.4531 97.1721 17.7201C97.2072 17.8982 97.1624 18.0612 97.0375 18.2092C96.9125 18.3572 96.7255 18.4249 96.4764 18.4125C95.9449 17.4385 95.145 17.0569 94.0768 17.268C93.5724 17.3676 93.026 17.6451 92.4377 18.1005C91.5344 18.8339 90.654 19.9173 89.7964 21.3507C88.9686 22.7783 88.2831 24.224 87.7398 25.6879C87.6563 25.8893 87.5309 26.2687 87.3635 26.8258C87.2257 27.3772 87.0997 27.9878 86.9855 28.6578C86.8712 29.3278 86.8282 29.9683 86.8564 30.5794C86.8619 30.7633 86.8734 30.8997 86.891 30.9887C86.9027 31.0481 86.9233 31.1519 86.9526 31.3003C87.146 32.2795 87.6136 32.6958 88.3554 32.5492C89.2456 32.3734 90.1255 31.5213 90.9951 29.993C91.579 28.8911 92.0799 27.7593 92.4978 26.5977C92.9158 25.4361 93.3339 24.1973 93.7522 22.8815C94.039 21.9924 94.3225 21.2427 94.6028 20.6324C94.883 20.0221 95.3791 19.6467 96.0913 19.506C96.4177 19.4415 96.7528 19.4215 97.0968 19.4461C97.4408 19.4706 97.785 19.418 98.1293 19.2883C97.9388 19.5726 97.7004 20.0822 97.4139 20.817C97.1571 21.546 96.8883 22.3699 96.6073 23.2886C96.3264 24.2073 96.0929 25.1321 95.9068 26.063C95.7207 26.9938 95.6151 27.7854 95.5898 28.4378C95.5953 28.6217 95.6006 28.8827 95.6058 29.2208C95.6406 29.5531 95.6726 29.7934 95.7019 29.9418C95.8661 30.7726 96.1855 31.1411 96.6603 31.0473C97.135 30.9535 97.5838 30.572 98.0065 29.9027C98.4589 29.2275 98.87 28.4218 99.24 27.4855C99.61 26.5492 99.9354 25.6216 100.216 24.7029C100.491 23.7545 100.71 22.9868 100.871 22.4C100.931 22.0798 101.08 21.8963 101.317 21.8494C101.466 21.8201 101.561 21.9093 101.602 22.117C101.619 22.206 101.607 22.378 101.565 22.6329C101.355 23.4451 101.092 24.3757 100.775 25.4249C100.453 26.4444 100.082 27.4578 99.6648 28.4652C99.2413 29.4429 98.7618 30.293 98.2263 31.0154C97.7146 31.7022 97.1382 32.1398 96.4971 32.3281Z" fill="black"/>
<path d="M109.343 30.2624C108.774 30.3371 108.174 30.1869 107.546 29.8118C106.913 29.4066 106.528 28.6793 106.39 27.6296C106.284 26.8199 106.357 25.8647 106.609 24.764C106.836 23.6972 107.186 22.6447 107.66 21.6064C108.164 20.5643 108.511 19.7256 108.703 19.0904C108.761 18.8387 108.779 18.6229 108.755 18.443C108.684 17.9032 108.288 17.5585 107.567 17.409C106.876 17.2556 105.989 17.2346 104.905 17.3462L104.56 18.9014C104.356 19.9042 104.038 21.0898 103.608 22.4579C103.207 23.8221 102.725 25.1512 102.163 26.4451C101.63 27.735 101.036 28.789 100.381 29.607C100.329 29.6748 100.258 29.7147 100.168 29.7265C100.048 29.7422 99.963 29.677 99.9133 29.531C99.8337 29.3889 99.8701 29.2011 100.023 28.9676C100.988 27.2549 101.811 25.393 102.493 23.3818C103.171 21.3407 103.696 19.2892 104.066 17.2274C104.466 15.1616 104.706 13.2694 104.786 11.5507C104.813 11.0591 104.933 10.6926 105.145 10.4512C105.354 10.1799 105.593 10.0265 105.863 9.99114C106.253 9.94004 106.638 10.0878 107.019 10.4344C107.396 10.751 107.63 11.2542 107.72 11.944C107.736 12.0639 107.739 12.2008 107.728 12.3547C107.748 12.5047 107.753 12.6566 107.742 12.8104C107.705 13.4559 107.424 14.1029 106.898 14.7513C106.399 15.3658 105.988 15.8316 105.663 16.1486C105.967 16.1393 106.286 16.128 106.62 16.1148C106.95 16.0715 107.309 16.0244 107.699 15.9733C109.109 15.7885 110.491 15.5158 111.847 15.155C111.931 15.3271 111.979 15.4581 111.99 15.5481C112.041 15.9379 111.986 16.4485 111.825 17.0797C111.694 17.707 111.54 18.2763 111.363 18.7875C111.278 19.0731 111.103 19.5994 110.837 20.3663C110.568 21.1032 110.282 21.949 109.98 22.9037C109.675 23.8284 109.429 24.7453 109.243 25.6543C109.083 26.5293 109.042 27.2668 109.121 27.8665C109.223 28.6463 109.574 28.9968 110.174 28.9182C110.624 28.8592 111.081 28.5095 111.546 27.8689C112.007 27.1984 112.438 26.4099 112.838 25.5033C113.264 24.5629 113.633 23.6603 113.947 22.7956C114.287 21.8969 114.545 21.192 114.722 20.6807C114.803 20.3651 114.948 20.1935 115.158 20.166C115.278 20.1503 115.352 20.2474 115.379 20.4573C115.395 20.5773 115.374 20.7631 115.315 21.0148C115.076 21.7478 114.788 22.5786 114.452 23.5072C114.116 24.4359 113.718 25.3574 113.259 26.2718C112.829 27.1822 112.326 27.9956 111.748 28.7118C111.197 29.3941 110.559 29.8744 109.832 30.1526C109.746 30.1944 109.583 30.231 109.343 30.2624Z" fill="black"/>
<path d="M119.029 29.2441C118.183 29.2944 117.412 29.0526 116.713 28.5185C116.013 27.9542 115.625 27.038 115.55 25.77C115.49 24.7737 115.599 23.5401 115.875 22.0693C116.179 20.5665 116.556 19.014 117.006 17.4116C117.484 15.7773 117.957 14.2948 118.423 12.9642L116.023 13.1071C115.811 13.1197 115.697 12.9751 115.679 12.6731C115.67 12.5222 115.692 12.3845 115.745 12.2602C115.828 12.134 115.945 12.0664 116.096 12.0574L118.814 11.8956C119.259 10.7177 119.735 9.56824 120.244 8.44717C120.753 7.32609 121.251 6.2663 121.737 5.26779C122.359 4.01875 123.045 3.06894 123.794 2.41834C124.543 1.76775 125.204 1.42537 125.778 1.3912C126.231 1.36423 126.619 1.5229 126.942 1.86722C127.264 2.18135 127.446 2.68562 127.487 3.38004C127.512 3.80272 127.457 4.39686 127.32 5.16244C127.183 5.89784 126.942 6.68482 126.598 7.52338C126.411 7.95865 126.145 8.58047 125.8 9.38884C125.484 10.1954 125.163 10.9114 124.837 11.5368L127.011 11.4073C127.222 11.3948 127.337 11.5394 127.355 11.8413C127.362 11.9621 127.34 12.0998 127.288 12.2543C127.235 12.3787 127.148 12.4445 127.027 12.4517L124.355 12.6108C123.678 13.954 122.893 15.2733 122.001 16.5687C121.108 17.8642 120.035 19.1704 118.78 20.4873C118.706 20.7645 118.608 21.1642 118.488 21.6864C118.398 22.2069 118.308 22.7424 118.22 23.2931C118.16 23.8117 118.095 24.2549 118.026 24.6226C117.988 24.9885 117.968 25.1714 117.968 25.1714C117.901 25.5693 117.877 25.9343 117.897 26.2664C117.935 26.9005 118.114 27.3595 118.434 27.6434C118.752 27.8971 119.107 28.0123 119.499 27.9889C119.741 27.9746 119.981 27.93 120.219 27.8552C120.455 27.7502 120.718 27.5831 121.007 27.3538C122.019 26.536 122.878 25.4547 123.586 24.1097C124.324 22.7629 124.959 21.4676 125.491 20.224C125.65 19.8509 125.821 19.659 126.002 19.6482C126.123 19.641 126.188 19.728 126.199 19.9091C126.204 19.9997 126.169 20.1684 126.093 20.4154C125.511 21.8438 125.019 22.9941 124.617 23.8665C124.214 24.7388 123.819 25.4744 123.43 26.0732C123.04 26.6419 122.574 27.215 122.033 27.7926C121.635 28.2405 121.171 28.5863 120.64 28.83C120.109 29.0737 119.572 29.2117 119.029 29.2441ZM121.576 11.731L123.886 11.5935C124.262 10.7833 124.608 9.99003 124.926 9.21365C125.273 8.43548 125.576 7.66 125.833 6.88722C126.015 6.39156 126.164 5.83732 126.279 5.22449C126.394 4.61166 126.441 4.13919 126.422 3.80708C126.395 3.3542 126.276 3.13405 126.064 3.14664C125.913 3.15563 125.695 3.30498 125.409 3.59469C125.152 3.85241 124.83 4.29578 124.443 4.92479C123.945 5.71196 123.46 6.72557 122.988 7.96561C122.545 9.17367 122.074 10.4288 121.576 11.731ZM119.056 19.0166C119.878 18.0587 120.635 17.044 121.329 15.9725C122.053 14.8992 122.714 13.7993 123.314 12.6728L121.185 12.7996C120.769 13.9455 120.381 15.0594 120.021 16.1413C119.661 17.2232 119.34 18.1816 119.056 19.0166Z" fill="black"/>
<path d="M53.4651 65.2212C52.1273 65.2916 51.1185 64.9034 50.4385 64.0566C49.7566 63.1746 49.3814 62.0824 49.3129 60.7798C49.2295 59.1956 49.5121 57.5215 50.1607 55.7576C50.7795 54.1011 51.5995 52.5753 52.6204 51.1801C53.6414 49.7849 54.7642 48.6491 55.989 47.7727C57.2119 46.8611 58.4218 46.3738 59.6188 46.3108C60.9566 46.2404 61.9655 46.6286 62.6455 47.4754C63.3254 48.3222 63.7006 49.4145 63.771 50.7522C63.8562 52.3717 63.5737 54.0457 62.9233 55.7744C62.5508 56.7472 62.0079 57.8348 61.2945 59.0373C60.5793 60.2046 59.7538 61.2895 58.8181 62.2919C59.0497 62.668 59.3666 62.9867 59.7686 63.248C60.1689 63.474 60.7034 63.5695 61.3723 63.5343C62.2172 63.4898 62.9908 63.0961 63.693 62.3531C64.4305 61.6082 65.0901 60.7263 65.6719 59.7072C66.2519 58.6529 66.7615 57.6024 67.2006 56.5555C67.6398 55.5086 68.0011 54.66 68.2846 54.0097C68.3791 53.7929 68.5496 53.678 68.796 53.665C68.9368 53.6576 69.0461 53.7225 69.1239 53.8596C69.1999 53.9615 69.1916 54.1384 69.0989 54.3904C68.9155 54.9296 68.6051 55.7403 68.1678 56.8223C67.7287 57.8692 67.1867 58.9744 66.5419 60.138C65.8952 61.2664 65.1346 62.2419 64.26 63.0646C63.3854 63.8873 62.3849 64.3282 61.2583 64.3875C60.4838 64.4283 59.8085 64.3402 59.2322 64.1235C58.6541 63.8715 58.1789 63.5611 57.8064 63.1924C57.0968 63.7945 56.3806 64.2735 55.658 64.6292C54.9354 64.985 54.2044 65.1823 53.4651 65.2212ZM54.1961 64.0178C55.1466 63.9677 56.1435 63.4564 57.1867 62.4836C56.8828 62.076 56.6484 61.647 56.4835 61.1968C56.3186 60.7465 56.226 60.3278 56.2056 59.9405C56.1723 59.3069 56.2844 58.7538 56.5419 58.2813C56.8347 57.807 57.2979 57.5531 57.9316 57.5198C58.3893 57.4957 58.7682 57.6523 59.0683 57.9895C59.4018 58.2897 59.5797 58.651 59.6019 59.0734C59.6075 59.1791 59.5954 59.2856 59.5658 59.3931C59.5695 59.4635 59.5565 59.5524 59.5269 59.6599C60.0828 58.8187 60.596 57.8385 61.0667 56.7194C62.0969 54.1587 62.5694 52.0687 62.4842 50.4493C62.4416 49.6396 62.2498 49.0142 61.9089 48.5732C61.568 48.1322 61.0807 47.9284 60.447 47.9618C59.7077 48.0007 58.9147 48.3601 58.0679 49.0401C57.2563 49.7182 56.4735 50.6067 55.7193 51.7054C55.0004 52.8023 54.376 54.0178 53.846 55.3519C53.3457 56.5785 52.9492 57.7643 52.6564 58.9094C52.397 60.0174 52.2886 60.9762 52.3312 61.7859C52.3683 62.49 52.5387 63.0459 52.8426 63.4535C53.1464 63.8612 53.5976 64.0493 54.1961 64.0178Z" fill="black"/>
<path d="M67.1748 83.0494C66.4064 83.1544 65.7165 83.0531 65.1051 82.7453C64.4588 82.4423 64.0592 81.732 63.9063 80.6142C63.6675 78.8678 63.8666 76.4211 64.5037 73.2739C65.1407 70.1268 65.9642 66.6517 66.9741 62.8487C66.4594 62.2075 66.1496 61.5026 66.0445 60.7342C65.8773 59.5117 66.1119 58.6257 66.7484 58.0761C67.2753 57.5059 67.8777 57.2278 68.5557 57.2418C69.4262 54.2407 70.3213 51.2895 71.2411 48.3884C72.1561 45.4523 73.0402 42.6806 73.8934 40.0732C74.7815 37.461 75.588 35.1625 76.3128 33.1775C76.7489 31.9437 77.2384 30.9694 77.7811 30.2548C78.3588 29.5353 79.1715 29.1039 80.2194 28.9606C80.5337 28.9176 80.91 28.9373 81.3483 29.0197C81.8167 29.0624 82.2231 29.0424 82.5676 28.9597C81.8694 29.838 81.0332 31.2689 80.0591 33.2523C79.1151 35.1961 78.1142 37.5034 77.0562 40.1744C75.9982 42.8454 74.9339 45.7307 73.8634 48.8304C72.823 51.8903 71.8422 54.9955 70.921 58.1459C71.2927 58.5221 71.6834 59.0379 72.0933 59.6935C72.5381 60.3443 72.8853 61.0618 73.1349 61.8461C73.1492 61.9509 73.1834 62.0707 73.2375 62.2057C73.2867 62.3057 73.336 62.4057 73.3852 62.5057C74.1934 62.4307 74.9236 62.0462 75.5759 61.3521C76.2631 60.6533 76.8716 59.7695 77.4015 58.7007C77.9663 57.6272 78.4541 56.5108 78.8649 55.3516C79.3106 54.1876 79.6785 53.1055 79.9687 52.1051C80.0195 51.9558 80.0948 51.8565 80.1948 51.8073C80.325 51.7183 80.425 51.6691 80.4949 51.6595C80.6346 51.6404 80.7489 51.6959 80.8379 51.8261C80.9221 51.9213 80.9285 52.0984 80.8571 52.3572C80.5162 53.5068 80.1301 54.716 79.6987 55.9848C79.2626 57.2186 78.747 58.3922 78.152 59.5054C77.5523 60.5837 76.8763 61.4945 76.124 62.2379C75.3669 62.9463 74.5168 63.365 73.5738 63.494C73.6421 63.7337 73.693 63.9758 73.7265 64.2203C73.7647 64.4997 73.8029 64.7791 73.8411 65.0586C74.0895 66.8748 74.1204 68.792 73.9338 70.8101C73.7822 72.8234 73.4193 74.7233 72.8453 76.5097C72.2712 78.2961 71.5144 79.7873 70.5749 80.9832C69.6355 82.1791 68.5021 82.8678 67.1748 83.0494ZM71.9993 62.9087L72.2613 62.8729C72.1021 61.9695 71.8375 61.2051 71.4673 60.5797C71.1909 60.1194 70.8716 59.7361 70.5095 59.4298C70.3668 59.9474 70.2368 60.4278 70.1194 60.8708C70.0323 61.2741 69.9173 61.7346 69.7746 62.2522C70.175 62.838 70.9165 63.0568 71.9993 62.9087ZM67.7673 81.5273C68.1165 81.4795 68.507 81.2126 68.9387 80.7266C69.3751 80.2755 69.7774 79.7046 70.1455 79.0138C70.8611 77.7417 71.436 76.2221 71.8704 74.4547C72.3047 72.6874 72.5898 70.8694 72.7257 69.0005C72.8615 67.1317 72.8045 65.4138 72.5546 63.8468C72.4847 63.8564 72.3974 63.8683 72.2926 63.8827C72.2275 63.9271 72.1601 63.9542 72.0902 63.9637C71.6361 64.0258 71.1527 64.003 70.6398 63.8952C70.1269 63.7874 69.6966 63.6328 69.3488 63.4313C68.7607 65.8957 68.2377 68.3156 67.7797 70.691C67.2916 73.1061 66.9575 75.2156 66.7771 77.0193C66.7282 77.7021 66.7022 78.2927 66.6992 78.7912C66.6963 79.2898 66.7186 79.7137 66.7664 80.063C66.9097 81.1108 67.2433 81.5989 67.7673 81.5273Z" fill="black"/>
<path d="M101.447 58.2284C99.4972 58.7127 98.0139 58.5906 96.9976 57.8622C95.9728 57.0996 95.2905 56.034 94.9507 54.6654C94.5769 53.16 94.5197 51.4669 94.7793 49.5863C95.073 47.6972 95.5417 46.0007 96.1854 44.4969C96.8463 42.9162 97.6863 41.6179 98.7054 40.602C99.716 39.552 100.837 38.874 102.069 38.5682C103.369 38.2454 104.408 38.3325 105.185 38.8297C105.962 39.3269 106.418 40.1399 106.553 41.2687C106.655 41.97 106.5 42.735 106.088 43.5637C105.668 44.3582 105.167 44.8276 104.585 44.9721C104.311 45.04 104.046 44.9969 103.79 44.8425C103.979 44.4324 104.168 43.9496 104.357 43.3942C104.546 42.8387 104.654 42.3216 104.68 41.8428C104.715 41.3983 104.681 40.9707 104.579 40.5602C104.367 39.7048 103.85 39.3791 103.029 39.5829C102.105 39.8123 101.249 40.5334 100.461 41.7463C99.6978 42.9165 99.0759 44.1424 98.595 45.4242C98.3891 45.9112 98.1741 46.6547 97.9502 47.6548C97.752 48.6121 97.6135 49.6635 97.5347 50.8091C97.4475 51.9205 97.527 52.9723 97.7734 53.9645C98.0282 54.991 98.48 55.8595 99.1287 56.5702C99.8031 57.2382 100.688 57.4363 101.783 57.1645C103.288 56.7907 104.456 56.0102 105.288 54.823C106.145 53.5932 106.81 52.1749 107.282 50.5682C107.789 48.953 108.219 47.3933 108.572 45.889C108.676 45.4275 108.83 45.1712 109.035 45.1203C109.206 45.0778 109.326 45.1934 109.394 45.4671C109.428 45.604 109.419 45.7878 109.367 46.0186C108.988 48.0016 108.553 49.8349 108.063 51.5185C107.573 53.2022 106.818 54.6246 105.799 55.7858C104.814 56.9385 103.363 57.7527 101.447 58.2284Z" fill="black"/>
<path d="M114.584 54.4778C113.304 54.8716 112.231 54.7405 111.365 54.0846C110.489 53.395 109.86 52.4268 109.476 51.18C109.01 49.6637 108.877 47.9712 109.077 46.1025C109.274 44.3452 109.698 42.6658 110.349 41.0641C111 39.4624 111.813 38.0876 112.787 36.9395C113.752 35.7578 114.807 34.9908 115.953 34.6385C117.233 34.2448 118.306 34.3759 119.172 35.0318C120.037 35.6876 120.667 36.6558 121.061 37.9363C121.537 39.4863 121.67 41.1788 121.46 43.0138C121.336 44.048 121.074 45.235 120.674 46.5749C120.264 47.8812 119.728 49.1343 119.064 50.3342C119.38 50.6427 119.765 50.8747 120.218 51.0303C120.662 51.1522 121.203 51.1147 121.844 50.9178C122.652 50.6692 123.307 50.0991 123.807 49.2076C124.341 48.3057 124.767 47.2897 125.083 46.1597C125.389 44.996 125.628 43.853 125.799 42.7308C125.97 41.6085 126.114 40.6975 126.231 39.9977C126.27 39.7645 126.407 39.6116 126.643 39.539C126.778 39.4976 126.9 39.5339 127.009 39.648C127.107 39.7283 127.142 39.902 127.113 40.169C127.067 40.7366 126.963 41.5983 126.802 42.7543C126.631 43.8766 126.374 45.0804 126.032 46.3659C125.679 47.6178 125.178 48.749 124.53 49.7598C123.882 50.7705 123.019 51.4416 121.941 51.7732C121.199 52.0011 120.523 52.0801 119.911 52.01C119.289 51.9062 118.753 51.7208 118.302 51.4537C117.76 52.2105 117.182 52.8493 116.567 53.3701C115.953 53.891 115.292 54.2602 114.584 54.4778ZM115.001 53.1327C115.91 52.8529 116.753 52.1144 117.528 50.9171C117.134 50.5956 116.803 50.2366 116.533 49.84C116.264 49.4434 116.072 49.0598 115.958 48.6891C115.771 48.0826 115.746 47.5188 115.88 46.9979C116.049 46.4666 116.437 46.1077 117.043 45.9212C117.481 45.7865 117.887 45.8461 118.26 46.1002C118.656 46.3102 118.917 46.6174 119.041 47.0218C119.072 47.1229 119.087 47.2291 119.084 47.3406C119.105 47.408 119.114 47.4974 119.111 47.6088C119.446 46.6577 119.705 45.5821 119.889 44.3821C120.265 41.6477 120.215 39.5055 119.739 37.9555C119.5 37.1805 119.162 36.6206 118.724 36.2758C118.286 35.931 117.764 35.8518 117.158 36.0383C116.45 36.2559 115.768 36.7975 115.112 37.6631C114.49 38.5183 113.947 39.5705 113.483 40.8197C113.052 42.0586 112.742 43.3894 112.553 44.8123C112.366 46.1238 112.27 47.3705 112.264 48.5524C112.282 49.6902 112.411 50.6466 112.649 51.4217C112.856 52.0956 113.157 52.5933 113.551 52.9147C113.944 53.2362 114.428 53.3089 115.001 53.1327Z" fill="black"/>
<path d="M132.889 48.4952C131.613 48.905 130.539 48.7874 129.665 48.1424C128.781 47.4638 128.139 46.5036 127.74 45.2617C127.255 43.7514 127.1 42.0606 127.277 40.1896C127.452 38.43 127.855 36.7453 128.486 35.1356C129.116 33.5259 129.912 32.141 130.872 30.9809C131.822 29.7871 132.867 29.007 134.008 28.6403C135.284 28.2306 136.358 28.3482 137.232 28.9932C138.106 29.6382 138.747 30.5984 139.157 31.8738C139.653 33.4178 139.807 35.1085 139.62 36.946C139.509 37.9816 139.262 39.1718 138.879 40.5167C138.486 41.8279 137.965 43.0876 137.316 44.2958C137.636 44.6003 138.024 44.8275 138.479 44.9774C138.924 45.0937 139.465 45.0495 140.103 44.8446C140.908 44.5858 141.556 44.0075 142.045 43.1098C142.568 42.2013 142.98 41.1801 143.282 40.0462C143.574 38.8788 143.798 37.7329 143.955 36.6086C144.112 35.4843 144.245 34.5715 144.353 33.8703C144.389 33.6366 144.524 33.482 144.759 33.4065C144.894 33.3634 145.016 33.3982 145.126 33.5109C145.226 33.59 145.263 33.7632 145.238 34.0305C145.198 34.5987 145.105 35.4617 144.958 36.6195C144.801 37.7439 144.56 38.9509 144.233 40.2406C143.896 41.4967 143.41 42.6341 142.775 43.6529C142.139 44.6717 141.285 45.3536 140.21 45.6986C139.472 45.9359 138.797 46.0233 138.184 45.9608C137.561 45.8649 137.022 45.6862 136.568 45.4248C136.036 46.1883 135.465 46.8343 134.858 47.3628C134.25 47.8913 133.594 48.2688 132.889 48.4952ZM133.288 47.145C134.194 46.8539 135.027 46.1048 135.788 44.8979C135.39 44.5814 135.054 44.2265 134.779 43.8333C134.505 43.4402 134.308 43.059 134.19 42.6898C133.995 42.0856 133.963 41.5222 134.091 40.9996C134.253 40.4663 134.636 40.1025 135.24 39.9084C135.676 39.7683 136.083 39.8229 136.459 40.0722C136.858 40.2773 137.122 40.5811 137.252 40.9839C137.284 41.0846 137.3 41.1907 137.298 41.3022C137.32 41.3693 137.33 41.4586 137.329 41.5701C137.652 40.6148 137.897 39.536 138.067 38.3338C138.409 35.5949 138.332 33.4535 137.836 31.9096C137.588 31.1376 137.242 30.582 136.8 30.2427C136.358 29.9035 135.835 29.8309 135.231 30.025C134.526 30.2514 133.851 30.8015 133.206 31.6752C132.594 32.5381 132.064 33.5971 131.616 34.852C131.201 36.0961 130.908 37.4308 130.736 38.856C130.566 40.1697 130.485 41.4174 130.495 42.5993C130.527 43.7368 130.667 44.6916 130.915 45.4636C131.131 46.1348 131.437 46.6287 131.835 46.9452C132.233 47.2617 132.717 47.3283 133.288 47.145Z" fill="black"/>
<path d="M157.533 41.763C156.584 41.8907 155.64 41.6721 154.699 41.1072C153.785 40.4996 153.029 39.58 152.431 38.3485C152.337 38.1176 152.252 37.9209 152.175 37.7584C152.124 37.5531 152.068 37.3308 152.008 37.0913C151.667 35.7231 151.702 34.5517 152.113 33.5773C152.516 32.5686 152.969 31.9832 153.474 31.821C154.03 31.7187 154.667 31.4327 155.385 30.9628C156.095 30.4588 156.677 29.8777 157.13 29.2196C157.926 28.1855 158.222 27.258 158.017 26.4371C157.804 25.5819 157.201 25.278 156.209 25.5254C155.662 25.6619 155.008 26.0249 154.246 26.6144C153.519 27.1954 152.723 28.0841 151.859 29.2806C150.781 30.7848 149.75 32.6952 148.765 35.0117C148.671 35.5076 148.597 36.2343 148.546 37.1919C148.485 38.1153 148.468 39.0643 148.493 40.0391C148.552 41.0053 148.663 41.8134 148.825 42.4633C148.953 42.9764 149.123 43.2971 149.337 43.4255L146.105 44.2316C145.728 44.3254 145.502 44.2184 145.425 43.9105C145.4 43.8079 145.395 43.7181 145.412 43.6412C145.43 43.5642 145.43 43.4189 145.413 43.2051C145.448 41.307 145.663 39.4731 146.057 37.7034C146.452 35.9338 146.825 34.0786 147.176 32.1379C146.534 34.6599 145.929 36.8997 145.364 38.8573C144.824 40.7722 144.357 42.0331 143.964 42.64C143.912 42.7254 143.835 42.781 143.733 42.8065C143.596 42.8407 143.489 42.7765 143.412 42.614C143.301 42.46 143.293 42.2804 143.387 42.0753C143.866 40.9384 144.359 39.4168 144.865 37.5104C145.404 35.5954 145.949 33.4796 146.497 31.1628C147.037 28.8118 147.59 26.4395 148.156 24.0457C148.721 21.652 149.283 19.3865 149.84 17.2493C150.431 15.1036 150.992 13.2742 151.523 11.7611C151.909 10.684 152.328 9.88907 152.782 9.37632C153.226 8.82937 153.74 8.48339 154.321 8.33838L154.578 8.2744C154.886 8.19763 155.24 8.16364 155.642 8.17243C156.078 8.17269 156.459 8.09596 156.784 7.94225C156.262 8.61741 155.684 9.65164 155.051 11.0449C154.417 12.4383 153.788 14.0667 153.162 15.9303C152.537 17.7939 151.92 19.7643 151.312 21.8416C150.738 23.9105 150.211 25.9494 149.731 27.9584C149.56 28.7278 149.414 29.5272 149.293 30.3565C149.173 31.1858 149.07 32.0108 148.984 32.8316C149.481 31.7631 150.071 30.6348 150.756 29.4467C151.441 28.2586 152.181 27.1476 152.977 26.1135C153.798 25.0366 154.658 24.1864 155.556 23.5627C156.583 22.8708 157.472 22.431 158.225 22.2433C159.011 22.0471 159.623 22.0945 160.059 22.3855C160.529 22.6679 160.836 23.0999 160.981 23.6814C161.143 24.3313 161.083 25.182 160.8 26.2335C160.509 27.2508 160 28.1953 159.272 29.067C158.648 29.7677 157.972 30.4086 157.245 30.9896C156.518 31.5706 155.603 32.0531 154.499 32.4372C154.414 32.9673 154.383 33.5017 154.409 34.0403C154.46 34.5363 154.545 35.0237 154.664 35.5026C154.997 36.8366 155.599 37.9399 156.471 38.8126C157.334 39.651 158.261 39.9465 159.253 39.6991C159.732 39.5797 160.211 39.3149 160.69 38.9048C161.203 38.4862 161.687 37.8751 162.14 37.0717C162.654 36.2169 163.095 35.0715 163.464 33.6353C163.866 32.1905 164.239 30.626 164.582 28.9419C164.651 28.6341 164.77 28.4589 164.942 28.4162C165.147 28.3651 165.283 28.4763 165.352 28.7499C165.386 28.8868 165.377 29.0706 165.326 29.3014C164.905 31.8406 164.404 33.9094 163.822 35.508C163.265 37.0638 162.644 38.2904 161.96 39.1877C161.301 40.0424 160.599 40.6533 159.855 41.0205C159.111 41.3877 158.337 41.6352 157.533 41.763Z" fill="black"/>
<path d="M169.72 38.8525C168.439 39.0953 167.469 38.9022 166.812 38.2733C166.148 37.6097 165.724 36.793 165.54 35.8232C165.442 35.3036 165.396 34.7742 165.401 34.2349C165.435 33.6545 165.495 33.1227 165.583 32.6396L167.381 23.0957C167.432 22.7989 167.438 22.5466 167.399 22.3388C167.333 21.9924 167.191 21.7144 166.972 21.5047C166.746 21.2605 166.589 21.0929 166.5 21.0021L169.338 20.3568C169.851 20.2238 170.228 20.2242 170.468 20.358C170.737 20.4506 170.891 20.6008 170.93 20.8086C170.97 21.0164 170.921 21.4204 170.783 22.0206L168.39 32.9689C168.39 32.9689 168.329 33.2138 168.207 33.7034C168.112 34.1519 168.061 34.4487 168.052 34.5938C168.047 35.133 168.04 35.4752 168.032 35.6203C168.023 35.7654 168.022 35.8553 168.029 35.8899C168.035 35.9246 168.062 36.0631 168.108 36.3056C168.193 36.7559 168.369 37.1172 168.636 37.3895C168.937 37.6553 169.365 37.7357 169.919 37.6307C170.266 37.5651 170.644 37.3858 171.055 37.0926C171.466 36.7995 171.756 36.5293 171.924 36.2821C172.62 35.2175 173.245 33.8791 173.801 32.2668C174.385 30.6134 174.902 28.9903 175.354 27.3978C175.427 27.0252 175.568 26.8192 175.775 26.7798C175.949 26.747 176.058 26.8518 176.104 27.0943C176.13 27.2328 176.118 27.4505 176.066 27.7473C175.858 28.5403 175.595 29.5229 175.279 30.695C174.963 31.8672 174.543 33.0591 174.019 34.2707C173.523 35.441 172.925 36.4513 172.225 37.3016C171.525 38.1518 170.69 38.6688 169.72 38.8525Z" fill="black"/>
<path d="M172.768 38.2835C173.703 35.5707 174.59 32.8996 175.429 30.27C176.299 27.6011 177.201 25.0524 178.137 22.6238C178.677 21.2761 179.143 20.3285 179.535 19.7812C179.958 19.1945 180.572 18.8501 181.376 18.748C181.656 18.7125 181.96 18.7273 182.288 18.7923C182.612 18.8223 182.931 18.8173 183.246 18.7774C183.456 18.7508 183.611 18.7133 183.711 18.665C183.257 19.0069 182.716 19.7863 182.089 21.003C181.457 22.1848 180.83 23.5437 180.208 25.0796C179.585 26.6156 179.039 28.053 178.569 29.3919C179.132 28.5032 179.712 27.6123 180.309 26.7192C180.941 25.8216 181.648 24.9501 182.429 24.1048C183.175 23.2638 184.077 22.3855 185.133 21.4696C186.22 20.5144 187.29 19.7035 188.343 19.0369C189.395 18.3703 190.254 17.9948 190.918 17.9105C191.163 17.8795 191.34 17.8748 191.449 17.8964C191.449 17.8964 191.301 18.2706 191.006 19.0188C190.705 19.7321 190.329 20.6861 189.876 21.8806C189.454 23.0358 189.026 24.2806 188.591 25.6151C188.152 26.9146 187.76 28.1724 187.417 29.3886C187.105 30.5655 186.927 31.5475 186.885 32.3346C186.838 32.8026 186.838 33.2289 186.887 33.6136C186.958 34.1732 187.11 34.5271 187.342 34.6753C187.574 34.8236 187.812 34.8822 188.057 34.8511C188.722 34.7668 189.377 34.3283 190.022 33.5357C190.664 32.708 191.25 31.7275 191.781 30.594C192.348 29.4561 192.831 28.3642 193.231 27.3184C193.662 26.2332 193.967 25.4127 194.145 24.8571C194.249 24.5595 194.334 24.3889 194.4 24.345C194.461 24.2662 194.561 24.2179 194.701 24.2002C194.911 24.1735 195.034 24.3001 195.069 24.5799C195.091 24.7548 195.063 24.9538 194.985 25.1769C194.667 26.0345 194.282 27.0606 193.83 28.2552C193.412 29.4453 192.905 30.6291 192.308 31.8064C191.707 32.9488 191.016 33.9427 190.234 34.788C189.449 35.5984 188.549 36.068 187.535 36.1966C186.835 36.2854 186.07 36.1338 185.238 35.7418C184.442 35.3453 183.959 34.4826 183.791 33.1536C183.742 32.7689 183.726 32.3623 183.742 31.9338C183.755 31.4702 183.815 30.9651 183.923 30.4183C184.114 29.6834 184.351 28.8893 184.634 28.0361C184.916 27.1829 185.406 26.0014 186.103 24.4915C186.299 24.0758 186.401 23.7607 186.409 23.5465C186.453 23.3278 186.466 23.1485 186.448 23.0086C186.395 22.5889 186.176 22.4034 185.791 22.4523C185.476 22.4922 185.026 22.727 184.441 23.1566C183.891 23.5817 183.217 24.2892 182.418 25.2789C181.65 26.2291 180.752 27.5513 179.723 29.2455C178.729 30.9351 177.636 33.3837 176.444 36.591C176.257 37.0767 176.008 37.357 175.698 37.4319C175.423 37.5024 175.025 37.5884 174.505 37.6899C174.16 37.7693 173.83 37.8289 173.515 37.8689C173.204 37.9438 172.955 38.082 172.768 38.2835Z" fill="black"/>
<path d="M191.749 51.9418C188.4 51.9528 186.721 50.5834 186.712 47.8336C186.708 46.5293 187.162 45.3644 188.076 44.3391C188.989 43.3137 190.079 42.4288 191.346 41.6844C193.105 40.621 194.812 39.7693 196.467 39.1294C198.121 38.4894 199.688 37.9202 201.167 37.4218C202.682 36.9586 204.108 36.4427 205.446 35.8743C206.074 34.0038 206.491 32.0459 206.696 30.0005C206.798 28.9425 206.848 28.0258 206.845 27.2502C206.843 26.4394 206.788 25.9108 206.681 25.6643C206.296 26.4059 205.788 27.3066 205.157 28.3662C204.526 29.4259 203.806 30.4682 202.999 31.4932C202.191 32.483 201.313 33.3143 200.363 33.9872C199.449 34.66 198.498 34.9981 197.511 35.0013C197.158 35.0024 196.823 34.9506 196.506 34.8459C195.517 34.4261 194.792 33.8292 194.332 33.0551C193.906 32.2809 193.692 31.4003 193.688 30.4132C193.683 28.8268 194.136 27.1155 195.046 25.2794C195.957 23.4432 197.044 21.7651 198.309 20.2451C199.327 19.0079 200.522 18.0168 201.895 17.272C203.267 16.5272 204.658 16.1525 206.069 16.1479C207.69 16.1426 209.208 16.684 210.622 17.7723C211.152 18.1936 211.418 18.651 211.419 19.1446C211.421 19.6734 211.21 19.9385 210.787 19.9398C210.435 19.941 210.187 19.7127 210.045 19.2548C209.547 17.9521 208.752 17.3025 207.659 17.3061C206.777 17.3089 205.774 17.7 204.648 18.4793C203.523 19.2233 202.468 20.1609 201.485 21.2923C200.642 22.2469 199.817 23.3424 199.01 24.5789C198.239 25.8153 197.59 27.0337 197.066 28.2341C196.576 29.4343 196.333 30.4751 196.335 31.3564C196.337 31.9557 196.48 32.4664 196.764 32.8885C197.047 33.3106 197.488 33.5207 198.088 33.5187C198.898 33.5161 199.743 33.1255 200.622 32.3471C201.536 31.5685 202.397 30.6139 203.204 29.4831C204.046 28.3522 204.765 27.2041 205.361 26.0388C205.991 24.8734 206.429 23.9025 206.673 23.1261C206.917 22.3145 207.251 21.8198 207.673 21.6422C208.095 21.4293 208.518 21.3221 208.941 21.3208C209.364 21.3194 209.716 21.2125 209.998 21C210.141 21.7751 210.232 22.568 210.27 23.3788C210.343 24.1541 210.381 24.9472 210.383 25.758C210.392 28.4725 210.049 31.2058 209.353 33.9578C209.985 33.4622 210.636 32.9313 211.304 32.365C212.007 31.7634 212.604 31.1269 213.096 30.4555C213.973 29.254 214.622 28.159 215.041 27.1705C215.496 26.1467 215.846 25.3523 216.091 24.7875C216.302 24.4343 216.53 24.2572 216.777 24.2564C216.988 24.2557 217.095 24.3612 217.095 24.5727C217.096 24.7489 217.026 24.9607 216.886 25.2079C216.011 27.0792 215.205 28.6859 214.469 30.0279C213.733 31.3347 212.926 32.4479 212.048 33.3673C211.169 34.2515 210.079 35.0131 208.776 35.6519C208.218 37.3459 207.378 39.1289 206.256 41.001C205.134 42.8731 203.817 44.6401 202.307 46.302C200.796 47.9638 199.144 49.3089 197.349 50.3371C195.555 51.4006 193.688 51.9355 191.749 51.9418ZM190.477 50.8884C191.252 50.8859 192.063 50.7069 192.907 50.3516C193.788 50.0315 194.615 49.641 195.389 49.1802C196.163 48.7193 196.761 48.3296 197.183 48.0109C197.992 47.3737 198.818 46.5778 199.661 45.6232C200.504 44.6686 201.241 43.7496 201.873 42.8662C202.469 42.0181 203.03 41.1173 203.556 40.1638C204.117 39.2454 204.59 38.3272 204.975 37.4094C204.693 37.516 204.341 37.6406 203.918 37.783C203.531 37.9253 203.249 38.0319 203.073 38.103C201.911 38.4946 200.626 38.9395 199.217 39.4376C197.844 39.9709 196.471 40.5395 195.098 41.1433C193.726 41.7823 192.476 42.4739 191.351 43.2179C190.366 43.8909 189.558 44.7749 188.927 45.8698C188.261 46.9649 187.929 47.9178 187.931 48.7286C187.933 49.3279 188.147 49.8384 188.571 50.2601C188.96 50.6818 189.595 50.8913 190.477 50.8884Z" fill="black"/>
<path fill-rule="evenodd" clip-rule="evenodd" d="M175.154 14.8941C175.158 15.0503 175.179 15.3619 175.179 15.3619L175.194 15.6892L175.247 16.346C175.247 16.346 175.257 16.6033 175.259 16.6964C175.262 16.8292 175.264 17.1273 175.264 17.1273C175.264 17.1273 175.256 17.4028 175.222 17.5537C175.194 17.6372 175.127 17.8002 175.127 17.8002L174.989 17.996C174.989 17.996 174.806 18.1863 174.702 18.2702C174.481 18.4046 174.008 18.5971 174.008 18.5971L173.596 18.696L173.285 18.735L173.094 18.7626C173.094 18.7626 172.848 18.7891 172.691 18.7938C172.562 18.7977 172.359 18.783 172.359 18.783C172.359 18.783 171.015 18.6766 170.344 18.6068C170.112 18.5675 169.88 18.529 169.647 18.4913C169.444 18.4634 169.043 18.3849 169.043 18.3849L168.72 18.3064L168.118 18.1771L168.075 18.1638L168.002 18.1442C168.002 18.1442 167.828 18.0902 167.704 18.0663C167.558 18.0266 167.412 17.9889 167.266 17.9531C167.203 17.9148 166.359 17.67 166.287 17.6407C166.374 17.6376 167.236 17.8532 167.322 17.8656C167.627 17.9291 167.936 17.983 168.251 18.0273C169.071 18.143 169.89 18.2163 170.711 18.2475C170.934 18.2762 171.153 18.2825 171.371 18.2662C171.52 18.2689 171.67 18.2683 171.82 18.2642C171.904 18.2578 171.984 18.2425 172.061 18.2182C172.164 18.19 172.269 18.1655 172.375 18.1446C172.502 18.0775 172.624 18.0004 172.741 17.9131C172.934 17.6896 172.957 17.4515 172.811 17.1987C172.674 17.046 172.507 16.9364 172.312 16.8701C172.304 16.8525 172.29 16.8394 172.269 16.8309C172.044 16.7931 171.818 16.7707 171.59 16.7637C171.561 16.7662 171.536 16.7754 171.516 16.7913C171.402 16.7986 171.29 16.8108 171.182 16.828C171.08 16.8216 170.984 16.8354 170.894 16.8694C170.702 16.8792 170.511 16.8991 170.321 16.929C170.266 16.9179 170.217 16.9287 170.176 16.9612C170.096 16.9614 170.016 16.9691 169.938 16.9842C169.815 16.9869 169.695 16.9983 169.58 17.0186C169.152 17.0687 168.723 17.1038 168.294 17.1239C168.186 17.1053 168.083 17.1106 167.985 17.1399C167.812 17.1332 167.638 17.1316 167.465 17.1351C166.846 17.1135 166.228 17.0679 165.612 16.9982C165.417 16.9793 165.222 16.9523 165.029 16.9172C164.757 16.8734 164.217 16.767 164.217 16.767C164.217 16.767 163.978 16.695 163.873 16.6632C163.796 16.6398 163.675 16.6032 163.675 16.6032L164.011 16.6241C164.011 16.6241 164.111 16.6271 164.198 16.6302C164.312 16.6342 164.456 16.6283 164.563 16.6151C164.812 16.5967 165.065 16.5907 165.321 16.597C165.445 16.6009 165.564 16.5894 165.679 16.5626C166.19 16.515 166.7 16.4492 167.211 16.3652C167.273 16.3734 167.329 16.3635 167.379 16.3353C167.834 16.2517 168.292 16.1652 168.752 16.0756C168.816 16.0777 168.879 16.0724 168.942 16.0595C168.985 16.0591 169.019 16.043 169.042 16.0112C169.098 16.0012 169.154 15.9913 169.21 15.9813C169.272 15.9895 169.328 15.9796 169.378 15.9514C169.66 15.8805 169.949 15.8315 170.244 15.8043C170.33 15.8077 170.41 15.7923 170.484 15.7584C170.784 15.704 171.086 15.6719 171.392 15.662C171.634 15.6583 171.872 15.643 172.105 15.6163C172.129 15.6186 172.152 15.6209 172.176 15.6232C172.298 15.6328 172.416 15.629 172.531 15.6119C173.188 15.6192 173.812 15.7585 174.404 16.0299C174.43 16.0658 174.468 16.0851 174.516 16.0876C174.519 16.0645 174.521 16.0415 174.523 16.0184C174.647 15.6412 174.745 15.3772 174.868 15.0032C174.9 14.9322 174.919 14.8863 174.92 14.8709C174.958 14.8174 175.066 14.422 175.095 14.358C175.111 14.4461 175.148 14.6229 175.154 14.8941Z" fill="#040404"/>
<path d="M170.113 1.1306C170.176 1.15957 170.245 1.1742 170.321 1.17449C170.91 1.3182 171.444 1.5689 171.924 1.92659C172.455 2.3823 172.993 2.8312 173.54 3.27328C173.766 3.41778 173.978 3.57844 174.177 3.75526C174.211 3.78205 174.248 3.79743 174.291 3.80141C174.92 4.28218 175.587 4.70503 176.292 5.06994C176.369 5.11717 176.451 5.1564 176.54 5.18759C176.854 5.33659 177.491 5.6075 177.491 5.6075L177.65 5.6698C177.65 5.6698 177.831 5.73924 177.924 5.76673C177.841 5.78134 177.754 5.78053 177.665 5.7643L177.548 5.75272C177.438 5.7134 177.201 5.67189 177.201 5.67189C177.201 5.67189 176.984 5.63867 176.876 5.61642L176.506 5.53327C176.372 5.49222 176.234 5.45528 176.092 5.42245C175.604 5.28088 175.124 5.12085 174.65 4.94238C174.385 4.80991 174.113 4.68993 173.835 4.58246C173.526 4.40919 173.212 4.24234 172.893 4.0819C172.821 4.03619 172.747 3.99006 172.67 3.94351C172.269 3.72655 171.874 3.50127 171.484 3.26767C171.453 3.22391 171.408 3.19623 171.351 3.18464C171.154 3.08623 170.958 2.98933 170.765 2.89397C170.731 2.85399 170.686 2.83399 170.629 2.83399L170.504 2.78978C170.423 2.76105 170.343 2.73271 170.264 2.70475C170.105 2.63609 169.936 2.58839 169.758 2.56161L169.665 2.55235C169.649 2.53288 169.626 2.51905 169.598 2.51083C169.331 2.46515 169.065 2.44275 168.801 2.44361C168.612 2.42816 168.424 2.425 168.235 2.43412C168.164 2.43413 168.092 2.4387 168.021 2.44784C168.007 2.45538 167.998 2.46613 167.994 2.48009C167.893 2.47601 167.797 2.48979 167.707 2.52144C167.624 2.5048 167.551 2.5209 167.489 2.56973C166.933 2.68988 166.429 2.92315 165.978 3.26961C165.521 3.61869 165.171 4.05331 164.928 4.57353C164.884 4.60481 164.856 4.64859 164.844 4.70485C164.792 4.82597 164.741 4.94501 164.69 5.06199C164.674 5.07833 164.663 5.10061 164.66 5.12881C164.652 5.17119 164.665 5.20346 164.698 5.22563C164.79 5.42247 164.868 5.62418 164.933 5.83071C164.974 6.06751 165.006 6.30337 165.029 6.53828C164.863 6.28389 164.678 6.04835 164.473 5.83164C164.177 5.5947 163.868 5.37409 163.546 5.16976C163.121 4.94657 162.672 4.78964 162.198 4.69895C161.994 4.65185 161.784 4.62716 161.567 4.6249C161.545 4.62918 161.529 4.63916 161.517 4.65484C161.413 4.64809 161.31 4.65343 161.208 4.67082C161.109 4.66515 161.021 4.68738 160.942 4.73752C160.067 4.93455 159.435 5.43051 159.046 6.2254C158.973 6.3656 158.919 6.51539 158.883 6.67473C158.862 6.69846 158.848 6.72802 158.839 6.76343C158.802 6.97697 158.781 7.19208 158.775 7.4087C158.778 7.43775 158.787 7.46195 158.804 7.48131C158.801 7.64604 158.813 7.81005 158.838 7.97337C159.038 8.79328 159.445 9.49678 160.058 10.0839C160.347 10.3409 160.664 10.5585 161.01 10.7365C161.232 10.8336 161.461 10.9144 161.695 10.9789C161.703 10.9965 161.717 11.0095 161.738 11.0181C161.807 11.0364 161.876 11.0472 161.947 11.0504C162.339 11.12 162.737 11.1555 163.142 11.157C163.164 11.1527 163.181 11.1428 163.192 11.1271C163.255 11.1195 163.318 11.118 163.382 11.1226C163.435 11.1257 163.484 11.1149 163.527 11.0904C163.79 11.062 164.047 11.0099 164.298 10.934C164.357 10.9339 164.406 10.9155 164.446 10.8788C164.507 10.8525 164.572 10.8357 164.64 10.8282C164.689 10.8225 164.73 10.8033 164.763 10.7706C164.91 10.6897 165.066 10.6276 165.231 10.5842C165.238 10.5541 165.233 10.5264 165.215 10.5012C164.958 10.3293 164.747 10.1107 164.583 9.84523C164.477 9.65921 164.39 9.46443 164.322 9.26088C164.322 9.20343 164.303 9.15503 164.266 9.11566C164.239 8.99085 164.22 8.86487 164.209 8.73767C164.208 8.6947 164.204 8.65169 164.198 8.6086C164.179 8.22281 164.232 8.54041 164.271 8.58098C164.625 9.16411 165.089 9.6483 165.663 10.0336C165.85 10.1246 166.038 10.2092 166.229 10.2874C166.272 10.3268 166.325 10.3514 166.387 10.3612C166.565 10.3943 166.744 10.4121 166.925 10.4145C166.963 10.4041 166.997 10.3879 167.025 10.3661C167.064 10.3575 167.104 10.3536 167.144 10.3546C167.271 10.3504 167.397 10.3435 167.524 10.3341C167.546 10.3298 167.563 10.3198 167.574 10.3042C167.591 10.3089 167.607 10.3066 167.622 10.2973C167.152 9.87429 166.845 9.35906 166.7 8.75155C166.697 8.65572 166.687 8.56161 166.669 8.46922C166.648 8.09717 166.661 7.72612 166.708 7.35609C166.714 7.26321 166.727 7.17141 166.747 7.08071C166.792 6.88427 166.844 6.70395 166.91 6.515L166.914 6.50466C166.95 6.41217 166.977 6.34196 166.993 6.33541C166.978 6.49459 166.976 6.50683 166.965 6.75295C166.969 6.96355 166.972 7.0257 166.974 7.05662C166.984 7.19616 166.99 7.33636 166.992 7.47723C167.035 7.62784 167.072 7.7788 167.1 7.93014C167.092 7.99105 167.103 8.04636 167.131 8.09609C167.156 8.12218 167.169 8.15444 167.169 8.1929C167.169 8.25035 167.188 8.29875 167.225 8.33812C167.52 9.13306 168.053 9.71715 168.824 10.0904C168.955 10.1307 169.085 10.1707 169.214 10.2105C169.291 10.2507 169.375 10.2746 169.467 10.282C169.569 10.3151 169.678 10.3336 169.792 10.3375C169.801 10.3083 169.795 10.2845 169.776 10.266C169.782 10.2436 169.776 10.2275 169.757 10.2176C169.721 10.1292 169.696 10.0893 169.684 10.001C169.662 9.83896 169.661 9.76468 169.652 9.60225C169.62 8.99408 169.836 8.58754 169.859 8.47372C169.907 9.38105 170.057 9.57248 170.057 9.57248C170.057 9.57248 170.346 10.1292 170.985 10.4671C171.142 10.521 171.304 10.5564 171.47 10.5734C171.494 10.5942 171.524 10.6088 171.56 10.6172C171.731 10.6468 171.901 10.6753 172.072 10.7027C172.815 10.8419 173.564 10.9122 174.319 10.9136C174.499 10.8821 174.675 10.8491 174.849 10.8147C174.905 10.8258 174.953 10.8151 174.994 10.7825C175.416 10.6464 175.806 10.4484 176.163 10.1885C176.73 9.75972 177.231 9.27022 177.667 8.72001C177.648 8.8353 177.617 8.9486 177.575 9.0599C177.523 9.11488 177.492 9.1817 177.484 9.26036C177.187 10.014 176.709 10.6298 176.049 11.108C175.9 11.193 175.756 11.2875 175.619 11.3912C175.795 11.7275 176.054 11.9819 176.394 12.1545C176.428 12.2121 176.48 12.2406 176.551 12.2398C176.642 12.2897 176.741 12.3228 176.849 12.3391C176.85 12.3535 176.856 12.3658 176.868 12.3759C177.148 12.4191 177.429 12.4469 177.711 12.4593C177.733 12.455 177.75 12.445 177.761 12.4294C179.098 12.2724 180.125 11.6372 180.844 10.5238C180.94 10.3707 181.016 10.2075 181.07 10.0342C181.125 9.94697 181.158 9.84941 181.17 9.74151C181.264 9.37164 181.293 8.61345 181.293 8.61345C181.293 8.61345 181.282 8.49881 181.274 8.42538C181.261 8.29671 181.243 8.20514 181.238 8.09603C181.22 7.94893 181.155 7.6768 181.108 7.57168C181.029 7.38762 180.98 7.29691 180.899 7.10833C180.603 6.56431 180.194 6.12429 179.671 5.78832C179.356 5.60762 179.034 5.44383 178.703 5.29696C178.545 5.25222 178.393 5.1907 178.249 5.11237C177.326 4.8356 175.562 4.09011 175.562 4.09011L175.394 4.00158C175.394 4.00158 175.24 3.92108 175.168 3.88826C174.981 3.76556 174.792 3.646 174.601 3.52961C174.28 3.2682 174.015 2.93744 173.782 2.59323C173.871 2.69139 173.941 2.75733 174.067 2.86877C174.099 2.89658 174.163 2.93941 174.163 2.93941C174.163 2.93941 174.742 3.31509 175.057 3.45839C175.213 3.5508 175.576 3.70754 175.576 3.70754C175.576 3.70754 175.742 3.7701 175.828 3.79063C176.177 3.91004 176.881 4.12762 176.881 4.12762L177.155 4.22455L177.68 4.41332C177.68 4.41332 177.998 4.50654 178.166 4.56033C178.43 4.64465 178.686 4.76608 178.819 4.78572L179.766 5.21319C179.766 5.21319 181.21 6.04362 181.734 7.26084C181.801 7.43102 181.85 7.60659 181.883 7.78752C181.893 7.85054 181.902 7.9135 181.912 7.97652L181.922 8.0726L181.961 8.31137C181.961 8.31137 181.973 8.35505 181.982 8.49545C181.992 8.63586 182.003 8.73018 182.003 8.73018C182.003 8.73018 181.964 9.437 181.898 9.79027C181.848 9.90365 181.812 10.0242 181.791 10.152C181.672 10.4865 181.53 10.8137 181.363 11.1336C181.31 11.1711 181.273 11.2218 181.253 11.2857C180.562 12.3384 179.604 13.027 178.379 13.3515C178.308 13.3661 178.235 13.3783 178.162 13.3883C178.149 13.3958 178.14 13.4066 178.136 13.4206L178.112 13.4182C177.972 13.4395 177.836 13.4648 177.703 13.4941C177.608 13.5002 177.513 13.5063 177.418 13.5124C177.306 13.5131 177.196 13.5177 177.085 13.5261C176.582 13.5283 176.082 13.4865 175.586 13.4009L175.539 13.3962C175.485 13.3615 175.424 13.3399 175.356 13.3316C175.365 13.3024 175.359 13.2786 175.34 13.2602C175.283 12.5707 174.948 12.0605 174.333 11.7294C174.007 11.5941 173.671 11.4871 173.325 11.4086C173.317 11.391 173.303 11.3779 173.282 11.3694C173.151 11.3351 173.021 11.3028 172.89 11.2724C172.697 11.2322 172.504 11.1898 172.312 11.1453C172.172 11.0952 172.026 11.0575 171.874 11.0322C171.657 10.9941 171.44 10.9571 171.223 10.9213C171.025 10.8675 170.82 10.8317 170.608 10.8138C170.412 10.7904 170.219 10.7868 170.03 10.8032C169.821 10.7907 169.616 10.7937 169.414 10.8121C169.314 10.7925 169.219 10.7986 169.129 10.8304C168.951 10.8332 168.776 10.847 168.605 10.8716C168.55 10.8605 168.501 10.8712 168.46 10.9038C168.169 10.928 167.881 10.9732 167.596 11.0393C167.218 11.1226 166.846 11.2215 166.48 11.3361C166.421 11.3363 166.372 11.3547 166.333 11.3913C166.227 11.4122 166.123 11.4367 166.018 11.4649C165.859 11.5133 165.711 11.5801 165.573 11.6652C165.509 11.6629 165.467 11.6897 165.447 11.7458C165.225 11.9038 165.052 12.1038 164.927 12.3459C164.896 12.4409 164.86 12.5304 164.817 12.6144C164.71 12.9298 164.646 13.2571 164.626 13.5961C164.595 13.9659 164.574 14.3361 164.563 14.7069C164.606 14.7175 164.639 14.7052 164.661 14.67C164.721 14.6568 164.778 14.6392 164.832 14.6171C164.919 14.6236 164.999 14.6083 165.073 14.5711C165.215 14.5431 165.357 14.5028 165.498 14.4503C165.698 14.4245 165.895 14.3896 166.087 14.3458C166.189 14.3381 166.286 14.3167 166.377 14.2814C166.52 14.2571 166.663 14.2403 166.808 14.2309C166.903 14.2235 166.998 14.2135 167.094 14.2011C167.108 14.1935 167.117 14.1828 167.121 14.1688C167.184 14.1734 167.248 14.1719 167.31 14.1643C167.397 14.1624 167.484 14.1593 167.571 14.1552C167.585 14.1477 167.594 14.1369 167.598 14.123C167.793 14.1029 167.991 14.0915 168.192 14.0887C168.342 14.0861 168.492 14.0815 168.643 14.0751C168.656 14.0675 168.665 14.0568 168.669 14.0428C168.874 14.0355 169.079 14.0325 169.285 14.0339C169.43 14.0509 169.572 14.0494 169.71 14.0295C170.044 14.0412 170.374 14.0506 170.7 14.0576C171.309 14.1145 171.917 14.1824 172.523 14.2613C172.468 14.2791 172.365 14.2845 172.214 14.2773C172.069 14.2603 171.927 14.2618 171.788 14.2817L171.765 14.2794C171.594 14.2575 171.428 14.2644 171.267 14.2999L171.15 14.2883C170.971 14.2867 170.796 14.3004 170.626 14.3295C170.567 14.3167 170.511 14.3189 170.46 14.3364C170.29 14.3312 170.124 14.338 169.962 14.3569C169.843 14.3345 169.732 14.3468 169.627 14.3936C169.516 14.396 169.405 14.4005 169.295 14.4073C169.176 14.4133 169.057 14.421 168.938 14.4301C168.924 14.4377 168.915 14.4484 168.911 14.4624C168.863 14.458 168.815 14.461 168.769 14.4715C168.677 14.4735 168.586 14.4799 168.495 14.491C168.462 14.492 168.441 14.5055 168.432 14.5313C168.281 14.541 168.13 14.5532 167.979 14.5679C167.709 14.6123 167.444 14.6675 167.183 14.7335C167.079 14.7316 166.982 14.753 166.893 14.7979C166.725 14.8143 166.564 14.8527 166.409 14.9129C166.298 14.9274 166.193 14.9558 166.094 14.998C165.817 15.0745 165.541 15.1558 165.266 15.2419C165.134 15.2611 165.011 15.3033 164.899 15.3685C164.507 15.4879 164.154 15.6779 163.839 15.9383C163.754 16.0127 163.688 16.0975 163.63 16.1783C163.609 16.2071 163.57 16.2609 163.57 16.2609C163.57 16.2609 163.847 13.3095 163.997 11.835C163.958 11.8262 163.933 11.8392 163.922 11.8741L163.875 11.8695C163.679 11.8716 163.488 11.8914 163.302 11.9292C163.144 11.926 162.987 11.9259 162.829 11.9289C162.295 11.9246 161.764 11.8798 161.236 11.7945C160.589 11.677 160.016 11.4109 159.519 10.9962C159.411 10.9006 159.311 10.7976 159.219 10.6873C159.198 10.6367 159.162 10.6021 159.111 10.5835C158.696 10.0552 158.4 9.46741 158.222 8.82003C158.222 8.76259 158.203 8.71418 158.166 8.67481C158.107 8.4502 158.067 8.22127 158.044 7.98797C158.047 7.9058 158.039 7.82745 158.02 7.75288C158.03 7.69134 158.033 7.62949 158.027 7.56736C158.023 7.54561 158.012 7.5291 157.996 7.5178C157.978 6.83136 158.143 6.19612 158.492 5.6121C158.537 5.58081 158.565 5.53704 158.576 5.48077C159.175 4.66021 159.986 4.18201 161.01 4.04616C161.095 4.04278 161.176 4.02745 161.251 4.00019C161.437 3.97297 161.628 3.96078 161.822 3.96359C162.113 3.96143 162.402 3.99 162.688 4.04928C162.951 4.12272 163.21 4.21043 163.465 4.31239C163.52 4.36633 163.587 4.404 163.667 4.42542C163.772 4.50061 163.884 4.56598 164.002 4.62147C164.071 4.23861 164.201 3.87915 164.392 3.54309C164.439 3.52479 164.466 3.48871 164.473 3.43481C164.505 3.36777 164.539 3.30133 164.576 3.23551C165.341 2.31782 166.246 1.49741 167.662 1.22097C167.728 1.20818 167.925 1.16544 168.058 1.13654C168.254 1.09407 168.512 1.0653 168.512 1.0653C168.512 1.0653 168.829 1.04625 168.987 1.04248C169.363 1.05783 169.738 1.08721 170.113 1.1306Z" fill="#040404"/>
</svg>
